<?xml version="1.0" encoding="utf-8"?>
<!-- Generator: Adobe Illustrator 18.0.0, SVG Export Plug-In . SVG Version: 6.00 Build 0)  -->
<!DOCTYPE svg PUBLIC "-//W3C//DTD SVG 1.1//EN" "http://www.w3.org/Graphics/SVG/1.1/DTD/svg11.dtd">
<svg version="1.1" id="图层_1" xmlns="http://www.w3.org/2000/svg" xmlns:xlink="http://www.w3.org/1999/xlink" x="0px" y="0px"
	 viewBox="0 0 1280 800" enable-background="new 0 0 1280 800" xml:space="preserve">
<title>アセット 8</title>
<path fill-rule="evenodd" clip-rule="evenodd" fill="#323232" d="M643.8,1C794,1,917.9,123,917.9,273.3c0,26.3-3.8,48.8-9.4,71.3
	c28.2,16.9,56.3,60.1,75.1,114.6c22.5,77,13.1,150.2-22.5,161.5c-18.8,5.6-41.3-5.6-60.1-28.2c-11.3,20.7-24.4,41.3-39.4,60.1
	c43.2,11.3,73.2,37.5,73.2,67.6c0,43.2-60.1,78.9-133.3,78.9c-54.5,0-103.3-20.7-122-48.8c-13.1,1.9-24.4,3.8-35.7,3.8
	c-11.3,0-22.5-1.9-35.7-3.8c-18.8,28.2-67.6,48.8-122,48.8c-73.2,0-133.3-35.7-133.3-78.9c0-30.1,30.1-56.3,73.2-67.6
	c-16.9-20.7-30-43.2-41.3-65.7c-20.7,26.3-45.1,39.4-65.7,33.8c-35.7-11.3-45.1-84.5-22.5-161.5c18.8-58.2,52.6-103.3,82.6-118.3
	c-5.6-20.7-9.4-43.2-9.4-67.6C369.6,123,493.5,1,643.8,1z"/>
</svg>
