<svg xmlns="http://www.w3.org/2000/svg" viewBox="0 0 15.49 12.59"><defs><style>.cls-1{fill:#323232;}</style></defs><title>アセット 8</title><g id="レイヤー_2" data-name="レイヤー 2"><g id="レイヤー_1-2" data-name="レイヤー 1"><path class="cls-1" d="M15.49,1.49a6.35,6.35,0,0,1-1.82.5A3.19,3.19,0,0,0,15.06.23,6.36,6.36,0,0,1,13,1,3.18,3.18,0,0,0,7.63,3.9,9,9,0,0,1,1.08.58a3.18,3.18,0,0,0,1,4.24,3.16,3.16,0,0,1-1.44-.4v0A3.18,3.18,0,0,0,3.17,7.58a3.19,3.19,0,0,1-1.43.05,3.18,3.18,0,0,0,3,2.21A6.37,6.37,0,0,1,.76,11.2a6.47,6.47,0,0,1-.76,0,9,9,0,0,0,4.87,1.43,9,9,0,0,0,9-9q0-.21,0-.41A6.46,6.46,0,0,0,15.49,1.49Z"/></g></g></svg>