<svg xmlns="http://www.w3.org/2000/svg" viewBox="0 0 17.11 17.11"><defs><style>.cls-1{fill:#323232;}</style></defs><title>アセット 9</title><g id="レイヤー_2" data-name="レイヤー 2"><g id="レイヤー_1-2" data-name="レイヤー 1"><path class="cls-1" d="M8.55,1.54c2.28,0,2.55,0,3.46,0a4.73,4.73,0,0,1,1.59.29,2.65,2.65,0,0,1,1,.64,2.65,2.65,0,0,1,.64,1,4.74,4.74,0,0,1,.29,1.59c0,.9,0,1.17,0,3.46s0,2.55,0,3.46a4.74,4.74,0,0,1-.29,1.59,2.83,2.83,0,0,1-1.62,1.62,4.73,4.73,0,0,1-1.59.29c-.9,0-1.17,0-3.46,0s-2.55,0-3.46,0a4.73,4.73,0,0,1-1.59-.29,2.65,2.65,0,0,1-1-.64,2.65,2.65,0,0,1-.64-1A4.74,4.74,0,0,1,1.59,12c0-.9,0-1.17,0-3.46s0-2.55,0-3.46a4.74,4.74,0,0,1,.29-1.59,2.65,2.65,0,0,1,.64-1,2.65,2.65,0,0,1,1-.64A4.73,4.73,0,0,1,5.1,1.59c.9,0,1.17,0,3.46,0M8.55,0C6.23,0,5.94,0,5,.05A6.28,6.28,0,0,0,3,.45a4.19,4.19,0,0,0-1.51,1A4.19,4.19,0,0,0,.45,3,6.28,6.28,0,0,0,.05,5C0,5.94,0,6.23,0,8.55s0,2.61.05,3.53a6.28,6.28,0,0,0,.4,2.08,4.19,4.19,0,0,0,1,1.52,4.19,4.19,0,0,0,1.51,1,6.28,6.28,0,0,0,2.08.4c.91,0,1.2.05,3.53.05s2.61,0,3.53-.05a6.28,6.28,0,0,0,2.08-.4,4.37,4.37,0,0,0,2.5-2.5,6.28,6.28,0,0,0,.4-2.08c0-.91.05-1.2.05-3.53s0-2.61-.05-3.53A6.28,6.28,0,0,0,16.66,3a4.19,4.19,0,0,0-1-1.52,4.19,4.19,0,0,0-1.51-1,6.28,6.28,0,0,0-2.08-.4C11.17,0,10.88,0,8.55,0Z"/><path class="cls-1" d="M8.55,4.16a4.39,4.39,0,1,0,4.39,4.39A4.39,4.39,0,0,0,8.55,4.16Zm0,7.24a2.85,2.85,0,1,1,2.85-2.85A2.85,2.85,0,0,1,8.55,11.41Z"/><circle class="cls-1" cx="13.12" cy="3.99" r="1.03"/></g></g></svg>