<?xml version="1.0" encoding="utf-8"?>
<!-- Generator: Adobe Illustrator 18.0.0, SVG Export Plug-In . SVG Version: 6.00 Build 0)  -->
<!DOCTYPE svg PUBLIC "-//W3C//DTD SVG 1.1//EN" "http://www.w3.org/Graphics/SVG/1.1/DTD/svg11.dtd">
<svg version="1.1" id="图层_1" xmlns="http://www.w3.org/2000/svg" xmlns:xlink="http://www.w3.org/1999/xlink" x="0px" y="0px"
	 viewBox="0 0 1280 800" enable-background="new 0 0 1280 800" xml:space="preserve">
<title>アセット 9</title>
<path fill="#323232" d="M639.8,72c106.6,0,119.2,0,161.8,0c25.4,0.2,50.5,4.8,74.3,13.6c17.6,6.3,33.6,16.5,46.8,29.9
	c13.4,13.1,23.6,29.1,29.9,46.8c8.7,23.8,13.3,49,13.6,74.3c0,42.1,0,54.7,0,161.8s0,119.2,0,161.8c-0.2,25.4-4.8,50.5-13.6,74.3
	c-13.4,34.8-40.9,62.3-75.7,75.7c-23.8,8.8-49,13.3-74.3,13.6c-42.1,0-54.7,0-161.8,0s-119.2,0-161.8,0
	c-25.4-0.2-50.5-4.8-74.3-13.6c-17.6-6.3-33.6-16.5-46.8-29.9c-13.4-13.1-23.6-29.1-29.9-46.8c-8.5-23.2-13.1-47.7-13.6-72.5
	c0-42.1,0-54.7,0-161.8s0-119.2,0-161.8c0.2-25.4,4.8-50.5,13.6-74.3c6.3-17.6,16.5-33.6,29.9-46.8c13.1-13.4,29.1-23.6,46.8-29.9
	c23.8-8.2,48.7-12.3,73.9-12.2c42.1,0,54.7,0,161.8,0 M639.8,0c-108.5,0-122,0-166,2.3c-32,1.1-63.6,7.4-93.5,18.7
	c-26.7,10.3-50.8,26.2-70.6,46.8c-21.5,20.2-38.1,45-48.6,72.5c-11.3,29.9-17.6,61.5-18.7,93.5c-2.3,44-2.3,57.5-2.3,166
	s0,122,2.3,165c0.7,33.2,7,66.1,18.7,97.3c10.2,26.8,26.2,51.1,46.8,71.1c19.8,20.5,43.9,36.5,70.6,46.8c31.1,11.7,64,18,97.3,18.7
	c42.5,0,56.1,2.3,165,2.3s122,0,165-2.3c33.2-0.7,66.1-7,97.3-18.7c53.7-20.8,96.1-63.2,116.9-116.9c11.7-31.1,18-64,18.7-97.3
	c0-42.5,2.3-56.1,2.3-165s0-122-2.3-165c-1.2-32.7-7.8-64.9-19.6-95.4c-10.2-26.8-26.2-51.1-46.8-71.1
	c-19.8-20.5-43.9-36.5-70.6-46.8c-31.1-11.7-64-18-97.3-18.7C762.3,0,748.7,0,639.8,0z"/>
<path fill-rule="evenodd" clip-rule="evenodd" fill="#595757" d="M1881.8,475.1l-55.5-26.8c-7.9,2-15.9,4-23.8,5
	c-10.9,2-21.8,3-32.7,3c-16.8,0-33.7-2-49.6-6c-1,0-2-1-3-1c-31.7-7.9-60.5-21.8-83.3-41.6c-14.9-12.9-27.8-28.7-37.7-45.6
	c-3,0-6.9,0-10.9,0c-12.9,0-25.8-1-38.7-3c-9.9-1-18.8-3-28.7-5.9l-68.4,32.7l-43.6,20.8l13.9-46.6l13.9-48.6
	c-20.8-16.8-38.7-35.7-51.5-58.5c-14.9-25.8-22.8-55.5-22.8-86.3c0-54.5,25.8-103.1,67.4-138.8c40.7-34.7,97.2-55.5,158.6-55.5
	c60.5,0,117,20.8,157.6,55.5c30.7,25.8,52.6,59.5,62.5,97.2c38.7,5.9,72.4,21.8,99.1,44.6c36.7,29.7,58.5,72.4,58.5,119
	c0,26.8-6.9,51.6-19.8,74.3c-10.9,17.8-24.8,34.7-41.6,48.6l10.9,38.7l13.9,46.6L1881.8,475.1L1881.8,475.1z M1518,80.5
	c-15.9,0-27.8,12.9-27.8,27.8c0,15.9,11.9,27.8,27.8,27.8c14.9,0,27.8-11.9,27.8-27.8C1545.7,93.4,1532.8,80.5,1518,80.5L1518,80.5z
	 M1651.8,80.5c-14.9,0-27.8,12.9-27.8,27.8c0,15.9,12.9,27.8,27.8,27.8c15.9,0,27.8-11.9,27.8-27.8
	C1679.6,93.4,1667.7,80.5,1651.8,80.5L1651.8,80.5z M1718.2,224.3c-11.9,0-20.8,9.9-20.8,21.8c0,11.9,8.9,20.8,20.8,20.8
	c11.9,0,21.8-8.9,21.8-20.8C1740,234.2,1730.1,224.3,1718.2,224.3L1718.2,224.3z M1828.3,224.3c-11.9,0-20.8,9.9-20.8,21.8
	c0,11.9,8.9,20.8,20.8,20.8c11.9,0,21.8-8.9,21.8-20.8C1850.1,234.2,1840.2,224.3,1828.3,224.3L1828.3,224.3z M1586.4,340.3
	c-6-15.9-8.9-33.7-8.9-51.6c0-46.6,21.8-89.2,56.5-119c35.7-29.7,83.3-47.6,135.8-47.6c4,0,7.9,0,11.9,0
	C1758.9,48.8,1679.6-5.7,1585.4-5.7c-113,0-204.2,77.3-204.2,172.5c0,55.5,29.7,104.1,77.3,135.8l-17.9,63.5l75.4-35.7
	c21.8,6,45.6,9.9,69.4,9.9H1586.4L1586.4,340.3z M1615.1,350.2c1,1,1,1,1,2l1,1c0,0,0,1,1,1v1l0,0c1,2,1,3,2,4l0,0
	c20.8,32.7,56.5,56.5,98.1,68.4c3,1,6.9,2,9.9,2c13.9,3,27.8,5,41.6,5c20.8,0,39.7-4,58.5-8.9l63.5,30.7l-15.9-53.5
	c39.7-26.8,65.4-67.4,65.4-114c0-68.4-56.5-125.9-131.9-140.8c-1-1-1-1-2-1c-1,0-1,0-2,0c-1,0-1,0-2-1c-1,0-2,0-3,0h-1c-1,0-2,0-3-1
	h-1c-1,0-3,0-4,0l0,0c-6.9-1-14.9-1-21.8-1c-95.2,0-170.5,64.5-170.5,144.8c0,17.8,4,35.7,10.9,51.6v1c1,0,1,1,1,2h1c0,1,0,2,1,2v1
	c0,1,1,1,1,2l1,1V350.2z"/>
<path fill-rule="evenodd" clip-rule="evenodd" fill="none" stroke="#323232" stroke-width="55" stroke-miterlimit="10" d="
	M783.3,292.6C766.4,210.1,680.9,147.3,578,147.3c-115,0-208.3,78.4-208.3,175.1c0,48.4,23.4,92.3,61.2,124
	c-60.8,208.2,75.5,57.7,87.7,43.9c18.8,4.7,38.8,7.2,59.4,7.2c4.9,0,9.8-0.1,14.7-0.4"/>
<path fill-rule="evenodd" clip-rule="evenodd" fill="none" stroke="#323232" stroke-width="55" stroke-miterlimit="10" d="
	M911.2,436.4c0-77.4-74.6-140.1-166.6-140.1S578,359,578,436.4s74.6,140.1,166.6,140.1c14.9,0,29.3-1.7,43.1-4.7
	c150.9,150.7,98.5-12.8,86.4-47.2C897.3,500.5,911.2,469.8,911.2,436.4z"/>
<circle fill-rule="evenodd" clip-rule="evenodd" fill="#323232" cx="518.7" cy="255.1" r="32.4"/>
<circle fill-rule="evenodd" clip-rule="evenodd" fill="#323232" cx="628.2" cy="255.1" r="32.4"/>
<circle fill-rule="evenodd" clip-rule="evenodd" fill="#323232" cx="691.6" cy="400.5" r="31.5"/>
<circle fill-rule="evenodd" clip-rule="evenodd" fill="#323232" cx="798.7" cy="400.5" r="31.5"/>
</svg>
